# xmcd CD database file
#
# Track frame offsets:
#	150
#	11045
#	28193
#	47973
#	69291
#	83806
#	103420
#	124034
#	140095
#	158975
#	182988
#	203013
#	218792
#	236189
#	248314
#	259721
#	274329
#	286362
#	306954
#
# Disc length: 4344 seconds
#
# Revision: 0
# Processed by: cddbd v1.5.2PL0 Copyright (c) Steve Scherf et al.
# Submitted via: CDex 1.70beta2
#
DISCID=2010f613
DTITLE=Various Artist - Hello Louis! 30 lat Złotej Tarki
DYEAR=1900
DGENRE=Jazz
TTITLE0=Prowizorka Jazz Band and Paweł Tartanus - What a Wonderful World
TTITLE1=Ragtime Jazz Band - Papa
TTITLE2=Ragtime Jazz Band - Buddy's Habits
TTITLE3=Old Timers - Georgia on My Mind
TTITLE4=Old Timers - March of the Charcoal Grays
TTITLE5=Big Band Stodoła - After You've Gone
TTITLE6=Gold Washboard - Savoy Blues
TTITLE7=Old Metropolitan Band - Whispering
TTITLE8=Old Metropolitan Band - Muskrat Ramble
TTITLE9=Vistula River Brass Band - Dardanella
TTITLE10=Vistula River Brass Band - Mood Indigo
TTITLE11=Spirituals and Gospel Singers - I Live for Jesus
TTITLE12=Spirituals and Gospel Singers - Sometimes I Feel a Motherless Child
TTITLE13=Prowizorka Jazz Band - Downtown Cafe Boogie
TTITLE14=Andrzej Jagodziński - Dwa na maśle
TTITLE15=The New Sami Swoi - Satchmo Blues
TTITLE16=Sami Swoi - Bye, Bye Blackbird
TTITLE17=Boba Jazz Band - Ole Miss
TTITLE18=Jazz Band Ball Orchestra and Kenny Ball - St. James Infirmary
EXTD=
EXTT0=
EXTT1=
EXTT2=
EXTT3=
EXTT4=
EXTT5=
EXTT6=
EXTT7=
EXTT8=
EXTT9=
EXTT10=
EXTT11=
EXTT12=
EXTT13=
EXTT14=
EXTT15=
EXTT16=
EXTT17=
EXTT18=
PLAYORDER=
